<svg width="255" height="114" viewBox="0 0 255 114" fill="none" xmlns="http://www.w3.org/2000/svg">
<g filter="url(#filter0_d_147_62)">
<circle cx="57" cy="57" r="32" fill="url(#paint0_radial_147_62)" shape-rendering="crispEdges"/>
<circle cx="57" cy="57" r="30.5" stroke="url(#paint1_linear_147_62)" stroke-width="3" shape-rendering="crispEdges"/>
</g>
<path d="M62.672 48.104C63.2907 48.6587 63.728 49.3093 63.984 50.056C64.1333 50.376 64.24 50.7067 64.304 51.048C64.3893 51.368 64.4533 51.6987 64.496 52.04C64.5387 52.5733 64.56 53.1067 64.56 53.64C64.5813 54.152 64.5813 54.6747 64.56 55.208C64.496 56.3387 64.4747 57.4373 64.496 58.504C64.5173 59.5707 64.4853 60.6587 64.4 61.768L64.304 62.824C64.2613 63.5707 64.144 64.328 63.952 65.096C63.76 65.8427 63.472 66.5253 63.088 67.144C62.7253 67.656 62.2453 68.072 61.648 68.392C61.072 68.6907 60.4533 68.9253 59.792 69.096C59.1947 69.2667 58.5867 69.3733 57.968 69.416C57.3707 69.4587 56.7627 69.4587 56.144 69.416C55.696 69.3733 55.2587 69.3093 54.832 69.224C54.4267 69.16 54.032 69.0427 53.648 68.872C53.2853 68.7013 52.9547 68.488 52.656 68.232C52.3573 67.9547 52.112 67.6027 51.92 67.176C51.6213 66.6427 51.4187 66.0773 51.312 65.48C51.2267 64.8613 51.1733 64.2427 51.152 63.624C51.088 61.96 51.0133 60.296 50.928 58.632C50.864 56.9467 50.8853 55.2613 50.992 53.576C51.0133 52.616 51.1307 51.656 51.344 50.696C51.5787 49.7147 52.0267 48.8507 52.688 48.104C52.9013 47.8907 53.1467 47.6987 53.424 47.528C54.128 47.1867 54.8853 46.9413 55.696 46.792C56.528 46.6213 57.3493 46.5573 58.16 46.6C58.992 46.6427 59.792 46.792 60.56 47.048C61.3493 47.2827 62.0533 47.6347 62.672 48.104ZM60.56 59.4V57.864L60.496 55.688C60.496 55.6667 60.4747 55.4533 60.432 55.048C60.4107 54.6213 60.3893 54.2267 60.368 53.864C60.3253 53.2667 60.1547 52.7227 59.856 52.232C59.5787 51.7413 59.1947 51.3787 58.704 51.144C58.2773 50.9733 57.84 50.9413 57.392 51.048C56.944 51.1547 56.5493 51.336 56.208 51.592C55.4613 52.168 54.96 52.904 54.704 53.8C54.5333 54.6107 54.4267 55.464 54.384 56.36C54.3627 57.256 54.3733 58.152 54.416 59.048C54.5227 59.7947 54.5973 60.5627 54.64 61.352C54.6827 62.12 54.8107 62.856 55.024 63.56C55.2373 63.9867 55.5467 64.3173 55.952 64.552C56.3573 64.7867 56.7947 64.9253 57.264 64.968C57.7333 64.9893 58.2027 64.9253 58.672 64.776C59.1413 64.6053 59.536 64.3387 59.856 63.976C60.048 63.72 60.1867 63.5173 60.272 63.368C60.3573 63.1973 60.4107 63.016 60.432 62.824C60.4533 62.632 60.4533 62.408 60.432 62.152C60.432 61.8747 60.4533 61.512 60.496 61.064C60.5173 60.6373 60.528 60.264 60.528 59.944C60.5493 59.624 60.56 59.4427 60.56 59.4ZM70.8448 53.928C70.8448 54.1627 70.8554 54.4293 70.8768 54.728C70.9834 54.664 71.1114 54.5893 71.2608 54.504C71.4314 54.4187 71.5701 54.3333 71.6768 54.248C72.1248 53.928 72.6261 53.672 73.1808 53.48C73.7354 53.288 74.3008 53.1813 74.8767 53.16C75.4741 53.1387 76.0501 53.2027 76.6048 53.352C77.1594 53.5013 77.6608 53.768 78.1088 54.152C78.3221 54.344 78.4821 54.7493 78.5888 55.368C78.7168 55.9653 78.7914 56.6907 78.8128 57.544C78.8554 58.3973 78.8661 59.336 78.8448 60.36C78.8448 61.3627 78.8341 62.3867 78.8128 63.432C78.7914 64.456 78.7701 65.448 78.7488 66.408C78.7274 67.368 78.7381 68.2107 78.7808 68.936C78.0341 69.0427 77.3621 69.0853 76.7648 69.064C76.1888 69.064 75.5274 69.064 74.7808 69.064C74.7381 68.5733 74.7168 68.0187 74.7168 67.4C74.7168 66.7813 74.7168 66.1413 74.7168 65.48C74.7381 64.8187 74.7381 64.1573 74.7168 63.496C74.7168 62.8347 74.6954 62.216 74.6528 61.64C74.6314 61.384 74.6101 61.1067 74.5888 60.808C74.5674 60.488 74.5248 60.1787 74.4608 59.88C74.4181 59.5813 74.3434 59.3147 74.2368 59.08C74.1514 58.8453 74.0234 58.664 73.8528 58.536C73.8314 58.5147 73.8101 58.504 73.7888 58.504C73.7674 58.504 73.7461 58.4933 73.7248 58.472C73.5541 58.3867 73.2981 58.3227 72.9568 58.28C72.6368 58.216 72.3168 58.2373 71.9968 58.344C71.6768 58.4293 71.3888 58.6213 71.1328 58.92C70.8768 59.1973 70.7274 59.624 70.6848 60.2C70.6421 60.9467 70.6314 61.6827 70.6528 62.408C70.6741 63.112 70.6954 63.8267 70.7168 64.552C70.7594 65.256 70.7808 65.96 70.7808 66.664C70.7808 67.368 70.7381 68.072 70.6528 68.776V68.904C70.2901 69.0107 69.9701 69.0747 69.6927 69.096C69.4368 69.1173 69.1701 69.1173 68.8928 69.096C68.6154 69.096 68.3061 69.0853 67.9648 69.064C67.6234 69.0427 67.1968 69.0533 66.6848 69.096C66.6848 66.472 66.6528 63.848 66.5888 61.224C66.5461 58.6 66.5674 55.88 66.6528 53.064C66.9088 53.0853 67.1221 53.1067 67.2928 53.128C67.4634 53.128 67.6234 53.128 67.7728 53.128C67.9221 53.128 68.0821 53.128 68.2528 53.128C68.4234 53.1067 68.6368 53.0853 68.8928 53.064C68.9781 53.064 69.1274 53.0533 69.3408 53.032C69.5541 52.9893 69.7674 52.9573 69.9808 52.936C70.1941 52.9147 70.3861 52.9147 70.5568 52.936C70.7274 52.936 70.8128 52.968 70.8128 53.032C70.8554 53.3947 70.8661 53.6933 70.8448 53.928ZM85.891 61.064C85.4217 61.0427 85.0803 61.0107 84.867 60.968V61.544C84.8883 62.184 84.9097 62.7067 84.931 63.112C84.9737 63.5173 85.1123 63.912 85.347 64.296C85.603 64.7867 85.9657 65.1493 86.435 65.384C86.9043 65.6187 87.363 65.6933 87.811 65.608C88.259 65.5227 88.6323 65.2667 88.931 64.84C89.251 64.392 89.3897 63.7307 89.347 62.856C89.5603 62.8773 89.8483 62.888 90.211 62.888C90.5737 62.8667 90.947 62.8453 91.331 62.824C91.7363 62.8027 92.1203 62.8027 92.483 62.824C92.8457 62.824 93.1443 62.856 93.379 62.92C93.3363 63.4747 93.2937 64.0187 93.251 64.552C93.2083 65.0853 93.155 65.5867 93.091 66.056C93.027 66.504 92.9417 66.8987 92.835 67.24C92.7497 67.56 92.6323 67.784 92.483 67.912C92.1203 68.424 91.651 68.7867 91.075 69C90.499 69.2133 89.8697 69.3413 89.187 69.384C88.5043 69.4267 87.8003 69.4267 87.075 69.384C86.371 69.3413 85.7203 69.32 85.123 69.32C84.5257 69.2347 83.971 69.0427 83.459 68.744C82.883 68.3387 82.403 67.816 82.019 67.176C81.635 66.5147 81.3257 65.8 81.091 65.032C80.8563 64.2427 80.6963 63.4107 80.611 62.536C80.5257 61.6613 80.5043 60.7867 80.547 59.912C80.611 59.1227 80.675 58.3653 80.739 57.64C80.8243 56.8933 80.995 56.168 81.251 55.464C81.5283 54.8453 81.955 54.3227 82.531 53.896C83.107 53.448 83.7577 53.1173 84.483 52.904C85.2083 52.6693 85.9763 52.5413 86.787 52.52C87.5977 52.4987 88.387 52.584 89.155 52.776C90.1363 52.9467 90.9257 53.288 91.523 53.8C92.1203 54.312 92.5683 54.9307 92.867 55.656C93.187 56.3813 93.379 57.1813 93.443 58.056C93.507 58.9307 93.507 59.816 93.443 60.712C93.2937 60.7547 93.0057 60.7973 92.579 60.84C92.1737 60.8827 91.683 60.9253 91.107 60.968C90.5523 61.0107 89.955 61.0427 89.315 61.064C88.675 61.0853 88.0563 61.096 87.459 61.096C86.883 61.096 86.3603 61.0853 85.891 61.064ZM89.635 56.872C89.4217 56.488 89.123 56.2 88.739 56.008C88.5683 55.9013 88.3977 55.8267 88.227 55.784C88.0563 55.72 87.8537 55.688 87.619 55.688C87.107 55.688 86.691 55.7413 86.371 55.848C86.051 55.9547 85.795 56.104 85.603 56.296C85.411 56.488 85.2617 56.712 85.155 56.968C85.0697 57.224 85.0057 57.4907 84.963 57.768C84.9203 58.0027 84.899 58.1733 84.899 58.28C84.9203 58.3653 85.027 58.4293 85.219 58.472C85.411 58.4933 85.7097 58.504 86.115 58.504C86.5417 58.4827 87.1603 58.472 87.971 58.472C88.5257 58.472 88.9417 58.4827 89.219 58.504C89.4963 58.5253 89.6883 58.536 89.795 58.536C89.923 58.5147 89.987 58.4827 89.987 58.44C89.987 58.376 89.987 58.2587 89.987 58.088C89.987 57.6613 89.8697 57.256 89.635 56.872ZM106.51 58.088C106.552 58.1733 106.627 58.28 106.734 58.408C107.075 58.8347 107.395 59.2613 107.694 59.688C108.014 60.0933 108.28 60.5307 108.494 61C108.728 61.448 108.888 61.9493 108.974 62.504C109.059 63.0587 109.038 63.6773 108.91 64.36C108.739 65.3627 108.408 66.184 107.918 66.824C107.448 67.4427 106.872 67.9227 106.19 68.264C105.507 68.6053 104.75 68.84 103.918 68.968C103.086 69.0747 102.222 69.128 101.326 69.128C100.451 69.1493 99.5658 69.128 98.6698 69.064C97.7951 69 96.9738 68.9573 96.2057 68.936C96.0778 68.936 95.9498 68.936 95.8218 68.936C95.7151 68.936 95.6084 68.9147 95.5018 68.872C95.3738 65.1813 95.3418 61.5227 95.4058 57.896C95.4698 54.248 95.4698 50.568 95.4058 46.856L95.4378 46.824C96.2911 46.5893 97.1978 46.408 98.1578 46.28C99.1178 46.152 100.067 46.1093 101.006 46.152C101.944 46.1947 102.84 46.3333 103.694 46.568C104.568 46.8027 105.336 47.1867 105.998 47.72C106.659 48.232 107.182 48.904 107.566 49.736C107.95 50.5467 108.142 51.5493 108.142 52.744C108.142 53.64 107.982 54.5147 107.662 55.368C107.363 56.2213 107 57.0107 106.574 57.736C106.488 57.8853 106.467 58.0027 106.51 58.088ZM102.958 64.296C103.256 64.168 103.512 63.976 103.726 63.72C103.96 63.4 104.067 63.016 104.046 62.568C104.046 62.12 103.971 61.7147 103.822 61.352C103.694 61.096 103.502 60.872 103.246 60.68C102.99 60.4667 102.723 60.328 102.446 60.264C102.04 60.1573 101.624 60.104 101.198 60.104C100.771 60.0827 100.355 60.0507 99.9498 60.008C99.8644 60.328 99.7898 60.6907 99.7258 61.096C99.6618 61.5013 99.6191 61.9173 99.5978 62.344C99.5978 62.7493 99.6298 63.144 99.6938 63.528C99.7578 63.912 99.8751 64.232 100.046 64.488L100.11 64.52C100.408 64.52 100.718 64.5307 101.038 64.552C101.379 64.552 101.71 64.5413 102.03 64.52C102.371 64.4773 102.68 64.4027 102.958 64.296ZM102.99 55.336C103.288 55.1653 103.523 54.92 103.694 54.6C103.843 54.344 103.971 54.0453 104.078 53.704C104.184 53.3627 104.152 53.0213 103.982 52.68C103.811 52.3387 103.587 52.0827 103.31 51.912C103.054 51.72 102.755 51.5813 102.414 51.496C101.987 51.4107 101.528 51.368 101.038 51.368C100.568 51.3467 100.174 51.4213 99.8538 51.592C99.8964 52.0827 99.8751 52.68 99.7898 53.384C99.7258 54.088 99.7898 54.8133 99.9818 55.56C100.302 55.6027 100.643 55.6347 101.006 55.656C101.368 55.6773 101.72 55.6667 102.062 55.624C102.403 55.5813 102.712 55.4853 102.99 55.336ZM120.774 68.68C120.774 69.4053 120.774 69.8107 120.774 69.896H120.486C120.23 69.896 119.921 69.8853 119.558 69.864C119.217 69.864 118.875 69.8533 118.534 69.832C118.214 69.832 117.926 69.8213 117.67 69.8C117.414 69.8 117.254 69.8 117.19 69.8C117.19 69.7787 117.19 69.5013 117.19 68.968C117.19 68.4133 117.19 67.6987 117.19 66.824C117.19 65.9493 117.19 64.9467 117.19 63.816C117.19 62.664 117.19 61.4907 117.19 60.296C117.19 59.08 117.19 57.8853 117.19 56.712C117.19 55.5387 117.19 54.472 117.19 53.512C117.19 52.5307 117.19 51.7093 117.19 51.048C117.19 50.3867 117.19 49.96 117.19 49.768V45.768C117.638 45.768 117.99 45.7787 118.246 45.8C118.502 45.8 118.737 45.8107 118.95 45.832C119.185 45.832 119.43 45.8213 119.686 45.8C119.942 45.7787 120.283 45.736 120.71 45.672V45.704C120.71 45.7893 120.71 46.1947 120.71 46.92C120.731 47.6453 120.742 48.5733 120.742 49.704C120.742 50.8133 120.742 52.072 120.742 53.48C120.763 54.888 120.774 56.328 120.774 57.8C120.774 59.272 120.774 60.712 120.774 62.12C120.774 63.528 120.774 64.7973 120.774 65.928C120.774 67.0373 120.774 67.9547 120.774 68.68ZM137.72 58.678C137.841 59.1807 137.936 59.5793 138.006 59.874L139.956 68.974V69C139.436 69.104 138.864 69.1387 138.24 69.104C137.616 69.0867 137.026 69.0173 136.472 68.896H136.446C136.342 68.6187 136.238 68.2893 136.134 67.908C136.047 67.5267 135.952 67.1367 135.848 66.738C135.761 66.3393 135.666 65.958 135.562 65.594C135.458 65.23 135.345 64.918 135.224 64.658C134.998 64.6233 134.825 64.606 134.704 64.606C134.582 64.606 134.47 64.606 134.366 64.606C134.279 64.606 134.175 64.6147 134.054 64.632C133.95 64.632 133.802 64.632 133.612 64.632C133.49 64.9093 133.386 65.2387 133.3 65.62C133.23 65.984 133.152 66.374 133.066 66.79C132.996 67.1887 132.918 67.5787 132.832 67.96C132.745 68.3413 132.624 68.6793 132.468 68.974C132.45 68.974 132.433 68.9827 132.416 69C132.416 69 132.407 69 132.39 69C132.251 69.0347 131.904 69.0347 131.35 69C130.795 68.9653 129.928 68.9567 128.75 68.974C128.732 68.974 128.715 68.9653 128.698 68.948C128.732 68.8267 128.793 68.4887 128.88 67.934C128.966 67.3793 129.088 66.66 129.244 65.776C129.4 64.892 129.582 63.878 129.79 62.734C130.015 61.5727 130.275 60.342 130.57 59.042C130.864 57.742 131.185 56.39 131.532 54.986C131.878 53.582 132.26 52.1867 132.676 50.8C132.797 50.7827 132.927 50.774 133.066 50.774C133.204 50.774 133.386 50.774 133.612 50.774C133.837 50.774 134.123 50.774 134.47 50.774C134.834 50.7567 135.302 50.722 135.874 50.67C135.926 50.8953 136.004 51.242 136.108 51.71C136.229 52.1607 136.35 52.6807 136.472 53.27C136.61 53.842 136.749 54.4573 136.888 55.116C137.044 55.7747 137.191 56.4073 137.33 57.014C137.468 57.6207 137.598 58.1753 137.72 58.678ZM134.366 61.59C134.695 61.5727 135.024 61.564 135.354 61.564C135.18 60.0733 135.024 58.912 134.886 58.08C134.764 57.248 134.652 56.6847 134.548 56.39C134.461 56.0953 134.366 56.0347 134.262 56.208C134.175 56.364 134.088 56.6933 134.002 57.196C133.932 57.6987 133.846 58.3313 133.742 59.094C133.655 59.8567 133.551 60.68 133.43 61.564C133.724 61.5813 134.036 61.59 134.366 61.59ZM144.235 56.754C144.235 56.9447 144.244 57.1613 144.261 57.404C144.348 57.352 144.452 57.2913 144.573 57.222C144.712 57.1527 144.825 57.0833 144.911 57.014C145.275 56.754 145.683 56.546 146.133 56.39C146.584 56.234 147.043 56.1473 147.511 56.13C147.997 56.1127 148.465 56.1647 148.915 56.286C149.366 56.4073 149.773 56.624 150.137 56.936C150.311 57.092 150.441 57.4213 150.527 57.924C150.631 58.4093 150.692 58.9987 150.709 59.692C150.744 60.3853 150.753 61.148 150.735 61.98C150.735 62.7947 150.727 63.6267 150.709 64.476C150.692 65.308 150.675 66.114 150.657 66.894C150.64 67.674 150.649 68.3587 150.683 68.948C150.077 69.0347 149.531 69.0693 149.045 69.052C148.577 69.052 148.04 69.052 147.433 69.052C147.399 68.6533 147.381 68.2027 147.381 67.7C147.381 67.1973 147.381 66.6773 147.381 66.14C147.399 65.6027 147.399 65.0653 147.381 64.528C147.381 63.9907 147.364 63.488 147.329 63.02C147.312 62.812 147.295 62.5867 147.277 62.344C147.26 62.084 147.225 61.8327 147.173 61.59C147.139 61.3473 147.078 61.1307 146.991 60.94C146.922 60.7493 146.818 60.602 146.679 60.498C146.662 60.4807 146.645 60.472 146.627 60.472C146.61 60.472 146.593 60.4633 146.575 60.446C146.437 60.3767 146.229 60.3247 145.951 60.29C145.691 60.238 145.431 60.2553 145.171 60.342C144.911 60.4113 144.677 60.5673 144.469 60.81C144.261 61.0353 144.14 61.382 144.105 61.85C144.071 62.4567 144.062 63.0547 144.079 63.644C144.097 64.216 144.114 64.7967 144.131 65.386C144.166 65.958 144.183 66.53 144.183 67.102C144.183 67.674 144.149 68.246 144.079 68.818V68.922C143.785 69.0087 143.525 69.0607 143.299 69.078C143.091 69.0953 142.875 69.0953 142.649 69.078C142.424 69.078 142.173 69.0693 141.895 69.052C141.618 69.0347 141.271 69.0433 140.855 69.078C140.855 66.946 140.829 64.814 140.777 62.682C140.743 60.55 140.76 58.34 140.829 56.052C141.037 56.0693 141.211 56.0867 141.349 56.104C141.488 56.104 141.618 56.104 141.739 56.104C141.861 56.104 141.991 56.104 142.129 56.104C142.268 56.0867 142.441 56.0693 142.649 56.052C142.719 56.052 142.84 56.0433 143.013 56.026C143.187 55.9913 143.36 55.9653 143.533 55.948C143.707 55.9307 143.863 55.9307 144.001 55.948C144.14 55.948 144.209 55.974 144.209 56.026C144.244 56.3207 144.253 56.5633 144.235 56.754ZM161.504 55.974C161.938 55.9913 162.432 56.0173 162.986 56.052C163.004 56.156 163.012 56.26 163.012 56.364C163.03 56.468 163.038 56.572 163.038 56.676V56.936C162.986 58.808 162.995 60.654 163.064 62.474C163.134 64.2767 163.108 66.1053 162.986 67.96C162.986 68.1853 162.978 68.4107 162.96 68.636C162.96 68.8613 162.856 68.9913 162.648 69.026H162.336C162.059 69.026 161.773 69.0173 161.478 69C161.201 68.9653 160.924 68.948 160.646 68.948C160.456 68.948 160.265 68.9653 160.074 69C159.901 69.0173 159.719 69.026 159.528 69.026C159.407 68.9913 159.32 68.922 159.268 68.818C159.234 68.714 159.216 68.5927 159.216 68.454C159.216 68.2633 159.234 68.1073 159.268 67.986C159.303 67.8647 159.32 67.7173 159.32 67.544C158.904 67.96 158.376 68.3153 157.734 68.61C157.11 68.9047 156.495 69.052 155.888 69.052C155.212 69.052 154.632 68.818 154.146 68.35C153.678 67.882 153.288 67.3013 152.976 66.608C152.664 65.9147 152.43 65.1607 152.274 64.346C152.136 63.5313 152.066 62.7773 152.066 62.084C152.066 61.2173 152.179 60.42 152.404 59.692C152.63 58.964 152.933 58.34 153.314 57.82C153.713 57.2827 154.181 56.8667 154.718 56.572C155.256 56.26 155.828 56.0953 156.434 56.078C156.746 56.078 157.032 56.0867 157.292 56.104C157.57 56.104 157.821 56.1473 158.046 56.234C158.272 56.3033 158.471 56.4247 158.644 56.598C158.818 56.754 158.965 56.9793 159.086 57.274C159.069 56.9967 159.078 56.7627 159.112 56.572C159.164 56.364 159.19 56.156 159.19 55.948C159.19 55.9307 159.242 55.922 159.346 55.922C159.468 55.9047 159.598 55.9047 159.736 55.922C159.875 55.922 160.014 55.922 160.152 55.922C160.291 55.922 160.386 55.922 160.438 55.922C160.733 55.9393 161.088 55.9567 161.504 55.974ZM156.148 60.082C155.75 60.4113 155.507 60.7927 155.42 61.226C155.351 61.4513 155.308 61.6853 155.29 61.928C155.273 62.1533 155.264 62.3787 155.264 62.604C155.264 63.384 155.464 64.0513 155.862 64.606C156.278 65.1433 156.85 65.412 157.578 65.412C158.012 65.412 158.332 65.3427 158.54 65.204C158.766 65.048 158.922 64.84 159.008 64.58C159.112 64.3027 159.164 63.9733 159.164 63.592C159.182 63.1933 159.19 62.7513 159.19 62.266C159.19 61.6593 159.182 61.1827 159.164 60.836C159.164 60.472 159.121 60.1947 159.034 60.004C158.965 59.8133 158.835 59.692 158.644 59.64C158.471 59.588 158.202 59.562 157.838 59.562C157.128 59.562 156.564 59.7353 156.148 60.082ZM164.718 54.83C164.718 53.2527 164.796 51.6753 164.952 50.098L168.488 50.176C168.488 50.8867 168.479 51.7447 168.462 52.75C168.444 53.7553 168.427 54.83 168.41 55.974C168.392 57.118 168.375 58.3053 168.358 59.536C168.358 60.7667 168.358 61.954 168.358 63.098C168.358 64.242 168.366 65.3167 168.384 66.322C168.401 67.31 168.427 68.1507 168.462 68.844C168.375 68.948 168.158 69 167.812 69C167.465 69.0173 167.084 69.0173 166.668 69C166.269 69 165.888 68.9913 165.524 68.974C165.16 68.9567 164.917 68.9653 164.795 69C164.917 67.44 164.96 65.8713 164.926 64.294C164.908 62.7167 164.874 61.1393 164.822 59.562C164.77 57.9847 164.735 56.4073 164.718 54.83ZM171.349 56.052C172.042 56 172.666 56.0087 173.221 56.078C173.342 56.702 173.481 57.4473 173.637 58.314C173.793 59.1633 173.958 60.03 174.131 60.914C174.304 61.798 174.486 62.6473 174.677 63.462C174.868 64.2593 175.058 64.918 175.249 65.438C175.44 64.918 175.596 64.2333 175.717 63.384C175.838 62.5347 175.951 61.6507 176.055 60.732C176.176 59.8133 176.306 58.9293 176.445 58.08C176.584 57.2307 176.757 56.546 176.965 56.026C177.554 56.0433 178.152 56.0347 178.759 56C179.366 55.9653 180.033 55.974 180.761 56.026C180.484 57.066 180.232 58.0627 180.007 59.016C179.799 59.952 179.591 60.8707 179.383 61.772C179.158 62.6213 178.95 63.514 178.759 64.45C178.586 65.386 178.36 66.3047 178.083 67.206C177.823 68.1073 177.485 68.9653 177.069 69.78C176.653 70.5947 176.098 71.2967 175.405 71.886C174.729 72.4927 173.88 72.952 172.857 73.264C171.852 73.576 170.612 73.6887 169.139 73.602C168.966 73.082 168.879 72.4927 168.879 71.834C168.862 71.1927 168.896 70.6293 168.983 70.144C169.399 70.144 169.824 70.1613 170.257 70.196C170.708 70.2307 171.106 70.2047 171.453 70.118C171.8 70.0487 172.06 69.884 172.233 69.624C172.424 69.364 172.476 68.948 172.389 68.376C172.025 66.2787 171.566 64.1813 171.011 62.084C170.456 59.9867 169.91 57.9587 169.373 56C169.997 56.0693 170.656 56.0867 171.349 56.052ZM185.681 51.242C185.975 51.2593 186.27 51.2507 186.565 51.216V54.7C186.565 54.9253 186.565 55.1593 186.565 55.402C186.582 55.6447 186.591 55.896 186.591 56.156C187.128 56.1387 187.691 56.1127 188.281 56.078C188.887 56.0433 189.633 56 190.517 55.948C190.638 56.0867 190.707 56.2947 190.725 56.572C190.742 56.832 190.742 57.118 190.725 57.43C190.707 57.742 190.681 58.0627 190.647 58.392C190.629 58.704 190.638 58.9727 190.673 59.198H186.643C186.643 60.134 186.643 61.0527 186.643 61.954C186.643 62.838 186.651 63.67 186.669 64.45C186.842 64.6927 187.093 64.8833 187.423 65.022C187.752 65.1607 188.107 65.2733 188.489 65.36C188.87 65.4293 189.251 65.4727 189.633 65.49C190.031 65.5073 190.378 65.5073 190.673 65.49C190.707 65.7327 190.742 66.0013 190.777 66.296C190.811 66.5907 190.837 66.894 190.855 67.206C190.872 67.518 190.863 67.83 190.829 68.142C190.811 68.454 190.759 68.74 190.673 69C189.979 69.0347 189.26 69.0347 188.515 69C187.769 68.948 187.067 68.844 186.409 68.688C185.75 68.532 185.161 68.298 184.641 67.986C184.138 67.674 183.774 67.2493 183.549 66.712C183.323 65.3773 183.193 64.1207 183.159 62.942C183.124 61.746 183.115 60.5153 183.133 59.25C182.855 59.2673 182.561 59.276 182.249 59.276C181.954 59.276 181.625 59.276 181.261 59.276L181.339 56.104C181.685 56.1213 182.006 56.13 182.301 56.13C182.613 56.13 182.907 56.13 183.185 56.13C183.185 55.7487 183.176 55.3413 183.159 54.908C183.141 54.4573 183.133 54.0067 183.133 53.556C183.133 53.1053 183.133 52.672 183.133 52.256C183.15 51.84 183.176 51.4673 183.211 51.138C183.436 51.1033 183.679 51.0947 183.939 51.112C184.216 51.1293 184.502 51.1553 184.797 51.19C185.091 51.2073 185.386 51.2247 185.681 51.242ZM193.707 55.922C194.106 55.9393 194.583 55.9393 195.137 55.922H195.579V56C195.562 58.0973 195.519 60.238 195.449 62.422C195.397 64.606 195.432 66.7467 195.553 68.844C195.467 68.948 195.25 69 194.903 69C194.557 69.0173 194.175 69.0173 193.759 69C193.361 69 192.979 68.9913 192.615 68.974C192.251 68.9567 192.009 68.9653 191.887 69C191.974 67.908 192.009 66.7987 191.991 65.672C191.991 64.5453 191.974 63.4273 191.939 62.318C191.905 61.2087 191.887 60.1167 191.887 59.042C191.887 57.95 191.939 56.8927 192.043 55.87V55.844C192.113 55.8267 192.225 55.8267 192.381 55.844C192.555 55.8613 192.685 55.87 192.771 55.87C192.997 55.8873 193.309 55.9047 193.707 55.922ZM191.965 52.282C191.931 51.7273 191.922 51.0513 191.939 50.254L195.475 50.332C195.475 50.436 195.475 50.6267 195.475 50.904C195.493 51.164 195.501 51.4587 195.501 51.788C195.519 52.1 195.527 52.4293 195.527 52.776C195.545 53.1053 195.553 53.4 195.553 53.66C195.484 53.764 195.319 53.8333 195.059 53.868C194.817 53.9027 194.522 53.92 194.175 53.92C193.846 53.9027 193.491 53.8853 193.109 53.868C192.728 53.8333 192.373 53.8247 192.043 53.842C192.043 53.3393 192.017 52.8193 191.965 52.282ZM206.63 63.93C206.925 63.93 207.167 63.956 207.358 64.008C207.323 64.4587 207.289 64.9007 207.254 65.334C207.219 65.7673 207.176 66.1747 207.124 66.556C207.072 66.92 207.003 67.2407 206.916 67.518C206.847 67.778 206.751 67.9687 206.63 68.09C206.335 68.506 205.945 68.8007 205.46 68.974C204.992 69.1473 204.481 69.2513 203.926 69.286C203.371 69.338 202.799 69.338 202.21 69.286C201.621 69.2513 201.083 69.234 200.598 69.234C199.714 69.078 198.969 68.6967 198.362 68.09C197.894 67.674 197.573 67.154 197.4 66.53C197.227 65.906 197.123 65.256 197.088 64.58C197.053 63.8867 197.045 63.1933 197.062 62.5C197.097 61.8067 197.079 61.174 197.01 60.602C197.01 59.978 197.062 59.354 197.166 58.73C197.183 58.5393 197.244 58.2793 197.348 57.95C197.452 57.6207 197.53 57.3693 197.582 57.196C197.703 56.936 197.894 56.7107 198.154 56.52C198.431 56.3293 198.743 56.1733 199.09 56.052C199.454 55.9133 199.835 55.818 200.234 55.766C200.65 55.714 201.066 55.688 201.482 55.688C201.829 55.7227 202.158 55.7313 202.47 55.714C202.799 55.6793 203.146 55.6793 203.51 55.714C204.065 55.7487 204.593 55.8527 205.096 56.026C205.599 56.1993 206.032 56.4593 206.396 56.806C206.639 56.9793 206.821 57.2133 206.942 57.508C207.081 57.8027 207.185 58.1493 207.254 58.548C207.323 58.9467 207.358 59.3973 207.358 59.9C207.375 60.3853 207.393 60.914 207.41 61.486C207.185 61.538 206.925 61.564 206.63 61.564C206.353 61.564 206.058 61.5553 205.746 61.538C205.451 61.5207 205.157 61.4947 204.862 61.46C204.585 61.4253 204.333 61.3907 204.108 61.356C204.021 60.7493 203.77 60.2813 203.354 59.952C202.938 59.6053 202.392 59.5187 201.716 59.692C201.352 59.796 201.057 59.9867 200.832 60.264C200.728 60.3333 200.65 60.5067 200.598 60.784C200.529 61.3213 200.494 61.8673 200.494 62.422C200.494 62.9767 200.477 63.5573 200.442 64.164C200.407 64.5627 200.503 64.8747 200.728 65.1C200.971 65.3253 201.257 65.4813 201.586 65.568C201.915 65.6373 202.253 65.6547 202.6 65.62C202.947 65.568 203.224 65.4727 203.432 65.334C203.605 65.2127 203.735 65.0133 203.822 64.736C203.926 64.4413 204.004 64.1813 204.056 63.956C204.229 63.9733 204.463 63.982 204.758 63.982C205.053 63.9647 205.365 63.9473 205.694 63.93C206.023 63.9127 206.335 63.9127 206.63 63.93ZM218.73 57.482C219.077 58.2273 219.25 59.068 219.25 60.004C218.695 60.0907 218.08 60.1427 217.404 60.16C216.745 60.1773 216.121 60.1253 215.532 60.004C215.584 59.796 215.558 59.588 215.454 59.38C215.367 59.172 215.229 58.99 215.038 58.834C214.865 58.678 214.657 58.5653 214.414 58.496C214.189 58.4093 213.963 58.3747 213.738 58.392C213.339 58.4613 213.036 58.6173 212.828 58.86C212.637 59.0853 212.542 59.3367 212.542 59.614C212.542 59.8913 212.646 60.1687 212.854 60.446C213.062 60.7233 213.365 60.9313 213.764 61.07C214.735 61.2087 215.645 61.3993 216.494 61.642C217.343 61.8673 217.967 62.24 218.366 62.76C218.747 63.384 218.981 64.0253 219.068 64.684C219.155 65.3253 219.033 66.1227 218.704 67.076C218.305 67.9253 217.681 68.532 216.832 68.896C215.983 69.26 215.055 69.4333 214.05 69.416C213.166 69.4507 212.369 69.3727 211.658 69.182C210.947 68.9913 210.332 68.7053 209.812 68.324C209.309 67.9427 208.911 67.4747 208.616 66.92C208.339 66.3653 208.2 65.7413 208.2 65.048V64.97V64.918C208.772 64.8487 209.422 64.8313 210.15 64.866C210.878 64.8833 211.511 64.892 212.048 64.892C212.065 65.2907 212.247 65.62 212.594 65.88C212.958 66.1227 213.339 66.27 213.738 66.322C214.137 66.3567 214.501 66.2787 214.83 66.088C215.159 65.8973 215.315 65.5507 215.298 65.048C215.35 64.632 215.255 64.32 215.012 64.112C214.769 63.904 214.449 63.748 214.05 63.644C213.651 63.5227 213.201 63.4187 212.698 63.332C212.195 63.2453 211.701 63.098 211.216 62.89C210.245 62.5607 209.535 62.0493 209.084 61.356C208.651 60.6453 208.443 59.9173 208.46 59.172C208.495 58.4093 208.737 57.7073 209.188 57.066C209.656 56.4247 210.315 55.9913 211.164 55.766C211.493 55.6793 211.892 55.61 212.36 55.558C212.845 55.506 213.357 55.48 213.894 55.48C214.431 55.48 214.969 55.5147 215.506 55.584C216.043 55.636 216.537 55.714 216.988 55.818C217.803 56.1647 218.383 56.7193 218.73 57.482Z" fill="white"/>
<defs>
<filter id="filter0_d_147_62" x="0" y="0" width="114" height="114" filterUnits="userSpaceOnUse" color-interpolation-filters="sRGB">
<feFlood flood-opacity="0" result="BackgroundImageFix"/>
<feColorMatrix in="SourceAlpha" type="matrix" values="0 0 0 0 0 0 0 0 0 0 0 0 0 0 0 0 0 0 127 0" result="hardAlpha"/>
<feMorphology radius="3" operator="dilate" in="SourceAlpha" result="effect1_dropShadow_147_62"/>
<feOffset/>
<feGaussianBlur stdDeviation="11"/>
<feComposite in2="hardAlpha" operator="out"/>
<feColorMatrix type="matrix" values="0 0 0 0 0.160784 0 0 0 0 0.878431 0 0 0 0 0.662745 0 0 0 1 0"/>
<feBlend mode="normal" in2="BackgroundImageFix" result="effect1_dropShadow_147_62"/>
<feBlend mode="normal" in="SourceGraphic" in2="effect1_dropShadow_147_62" result="shape"/>
</filter>
<radialGradient id="paint0_radial_147_62" cx="0" cy="0" r="1" gradientUnits="userSpaceOnUse" gradientTransform="translate(57 57) rotate(90) scale(32)">
<stop stop-opacity="0"/>
<stop offset="1"/>
</radialGradient>
<linearGradient id="paint1_linear_147_62" x1="57" y1="25" x2="57" y2="89" gradientUnits="userSpaceOnUse">
<stop stop-color="#29E0A9"/>
<stop offset="1" stop-color="#167A5C"/>
</linearGradient>
</defs>
</svg>
